# Alias OBJ Model File
# Exported from SketchUp, (c) 2000-2012 Trimble Navigation Limited
# File units = millimeters

mtllib skeleton.mtl

g Mesh1 Group2 Group1 Model

usemtl Blacktop_Old_02
v 575 150 25
vt 0 0
vn 1 0 -0
v 575 150 -7.10543e-14
vt 19.685 0
v 575 287.5 -7.10543e-14
vt 19.685 118.11
v 575 287.5 25
vt 0 118.11
f 1/1/1 2/2/1 3/3/1 4/4/1 

vn -1 -0 0
f 4/4/2 3/3/2 2/2/2 1/1/2 

v 550 287.5 25
vn 0 1 -0
vt 19.685 19.685
v 550 287.5 -7.10543e-14
vt 0 19.685
f 5/1/3 4/2/3 3/5/3 6/6/3 

v 550 150 25
vn 0 0 1
f 7/1/4 1/2/4 4/3/4 5/4/4 

vn -0 -0 -1
f 5/4/5 4/3/5 1/2/5 7/1/5 

vn -0 -1 0
f 6/6/6 3/5/6 4/2/6 5/1/6 

vt -19.685 0
vn 0 0 -1
v 550 150 -7.10543e-14
vt -19.685 118.11
f 2/7/7 8/1/7 6/4/7 3/8/7 

vn -0 -0 1
f 3/8/8 6/4/8 8/1/8 2/7/8 

vn -1 0 -0
f 8/7/9 7/1/9 5/4/9 6/8/9 

vn 1 -0 0
f 6/8/10 5/4/10 7/1/10 8/7/10 

vn 0 -1 -0
vt -19.685 19.685
f 1/7/11 7/1/11 8/6/11 2/9/11 

vn -0 1 0
f 2/9/12 8/6/12 7/1/12 1/7/12 

g Mesh2 Group3 Group1 Model

v 850 150 300
v 850 150 275
v 850 287.5 275
v 850 287.5 300
f 9/1/1 10/2/1 11/3/1 12/4/1 

f 12/4/2 11/3/2 10/2/2 9/1/2 

v 825 287.5 300
v 825 287.5 275
f 13/1/3 12/2/3 11/5/3 14/6/3 

v 825 150 300
f 15/1/4 9/2/4 12/3/4 13/4/4 

f 13/4/5 12/3/5 9/2/5 15/1/5 

f 14/6/6 11/5/6 12/2/6 13/1/6 

v 825 150 275
f 10/7/7 16/1/7 14/4/7 11/8/7 

f 11/8/8 14/4/8 16/1/8 10/7/8 

f 16/7/9 15/1/9 13/4/9 14/8/9 

f 14/8/10 13/4/10 15/1/10 16/7/10 

f 9/7/11 15/1/11 16/6/11 10/9/11 

f 10/9/12 16/6/12 15/1/12 9/7/12 

g Mesh3 Group4 Group1 Model

v 850 150 25
v 850 150 -7.10543e-14
v 850 287.5 -7.10543e-14
v 850 287.5 25
f 17/1/1 18/2/1 19/3/1 20/4/1 

f 20/4/2 19/3/2 18/2/2 17/1/2 

v 825 287.5 25
v 825 287.5 -7.10543e-14
f 21/1/3 20/2/3 19/5/3 22/6/3 

v 825 150 25
f 23/1/4 17/2/4 20/3/4 21/4/4 

f 21/4/5 20/3/5 17/2/5 23/1/5 

f 22/6/6 19/5/6 20/2/6 21/1/6 

v 825 150 -7.10543e-14
f 18/7/7 24/1/7 22/4/7 19/8/7 

f 19/8/8 22/4/8 24/1/8 18/7/8 

f 24/7/9 23/1/9 21/4/9 22/8/9 

f 22/8/10 21/4/10 23/1/10 24/7/10 

f 17/7/11 23/1/11 24/6/11 18/9/11 

f 18/9/12 24/6/12 23/1/12 17/7/12 

g Mesh4 Group5 Group1 Model

v 0 150 -1.13687e-13
vt 0 9.84252
v 850 150 -1.13687e-13
vt -669.291 9.84252
v 850 137.5 -1.13687e-13
vt -669.291 0
v 0 137.5 -1.13687e-13
f 25/10/7 26/11/7 27/12/7 28/1/7 

f 28/1/8 27/12/8 26/11/8 25/10/8 

v 0 137.5 300
vt 0 236.22
vt -669.291 236.22
v 850 137.5 300
f 29/1/11 28/13/11 27/14/11 30/12/11 

v 0 150 300
vt -236.22 9.84252
vt -236.22 0
f 31/10/9 25/15/9 28/16/9 29/1/9 

v 850 150 300
vt 669.291 0
vt 669.291 236.22
f 25/13/3 31/1/3 32/17/3 26/18/3 

f 26/18/6 32/17/6 31/1/6 25/13/6 

vt 236.22 9.84252
vt 236.22 0
f 26/19/1 32/10/1 30/1/1 27/20/1 

f 27/20/2 30/1/2 32/10/2 26/19/2 

f 30/12/12 27/14/12 28/13/12 29/1/12 

f 29/1/10 28/16/10 25/15/10 31/10/10 

vt 669.291 9.84252
f 32/21/4 31/10/4 29/1/4 30/17/4 

f 30/17/5 29/1/5 31/10/5 32/21/5 

g Mesh5 Group6 Group1 Model

v 850 300 25
v 850 300 -7.10543e-14
v 850 437.5 -7.10543e-14
v 850 437.5 25
f 33/1/1 34/2/1 35/3/1 36/4/1 

f 36/4/2 35/3/2 34/2/2 33/1/2 

v 825 437.5 25
v 825 437.5 -7.10543e-14
f 37/1/3 36/2/3 35/5/3 38/6/3 

v 825 300 25
f 39/1/4 33/2/4 36/3/4 37/4/4 

f 37/4/5 36/3/5 33/2/5 39/1/5 

f 38/6/6 35/5/6 36/2/6 37/1/6 

v 825 300 -7.10543e-14
f 34/7/7 40/1/7 38/4/7 35/8/7 

f 35/8/8 38/4/8 40/1/8 34/7/8 

f 40/7/9 39/1/9 37/4/9 38/8/9 

f 38/8/10 37/4/10 39/1/10 40/7/10 

f 33/7/11 39/1/11 40/6/11 34/9/11 

f 34/9/12 40/6/12 39/1/12 33/7/12 

g Mesh6 Group7 Group1 Model

v 850 300 300
v 850 300 275
v 850 437.5 275
v 850 437.5 300
f 41/1/1 42/2/1 43/3/1 44/4/1 

f 44/4/2 43/3/2 42/2/2 41/1/2 

v 825 437.5 300
v 825 437.5 275
f 45/1/3 44/2/3 43/5/3 46/6/3 

v 825 300 300
f 47/1/4 41/2/4 44/3/4 45/4/4 

f 45/4/5 44/3/5 41/2/5 47/1/5 

f 46/6/6 43/5/6 44/2/6 45/1/6 

v 825 300 275
f 42/7/7 48/1/7 46/4/7 43/8/7 

f 43/8/8 46/4/8 48/1/8 42/7/8 

f 48/7/9 47/1/9 45/4/9 46/8/9 

f 46/8/10 45/4/10 47/1/10 48/7/10 

f 41/7/11 47/1/11 48/6/11 42/9/11 

f 42/9/12 48/6/12 47/1/12 41/7/12 

g Mesh7 Group8 Group1 Model

v 575 300 25
v 575 300 -7.10543e-14
v 575 437.5 -7.10543e-14
v 575 437.5 25
f 49/1/1 50/2/1 51/3/1 52/4/1 

f 52/4/2 51/3/2 50/2/2 49/1/2 

v 550 437.5 25
v 550 437.5 -7.10543e-14
f 53/1/3 52/2/3 51/5/3 54/6/3 

v 550 300 25
f 55/1/4 49/2/4 52/3/4 53/4/4 

f 53/4/5 52/3/5 49/2/5 55/1/5 

f 54/6/6 51/5/6 52/2/6 53/1/6 

v 550 300 -7.10543e-14
f 50/7/7 56/1/7 54/4/7 51/8/7 

f 51/8/8 54/4/8 56/1/8 50/7/8 

f 56/7/9 55/1/9 53/4/9 54/8/9 

f 54/8/10 53/4/10 55/1/10 56/7/10 

f 49/7/11 55/1/11 56/6/11 50/9/11 

f 50/9/12 56/6/12 55/1/12 49/7/12 

g Mesh8 Group9 Group1 Model

v 275 300 -2.27374e-13
v 850 300 -2.27374e-13
v 850 287.5 -2.27374e-13
v 275 287.5 -2.27374e-13
f 57/10/7 58/11/7 59/12/7 60/1/7 

f 60/1/8 59/12/8 58/11/8 57/10/8 

v 275 287.5 300
v 850 287.5 300
f 61/1/11 60/13/11 59/14/11 62/12/11 

v 275 300 300
f 63/10/9 57/15/9 60/16/9 61/1/9 

v 850 300 300
f 57/13/3 63/1/3 64/17/3 58/18/3 

f 58/18/6 64/17/6 63/1/6 57/13/6 

f 58/19/1 64/10/1 62/1/1 59/20/1 

f 59/20/2 62/1/2 64/10/2 58/19/2 

f 62/12/12 59/14/12 60/13/12 61/1/12 

f 61/1/10 60/16/10 57/15/10 63/10/10 

f 64/21/4 63/10/4 61/1/4 62/17/4 

f 62/17/5 61/1/5 63/10/5 64/21/5 

g Mesh9 Group10 Group1 Model

v 575 300 300
v 575 300 275
v 575 437.5 275
v 575 437.5 300
f 65/1/1 66/2/1 67/3/1 68/4/1 

f 68/4/2 67/3/2 66/2/2 65/1/2 

v 550 437.5 300
v 550 437.5 275
f 69/1/3 68/2/3 67/5/3 70/6/3 

v 550 300 300
f 71/1/4 65/2/4 68/3/4 69/4/4 

f 69/4/5 68/3/5 65/2/5 71/1/5 

f 70/6/6 67/5/6 68/2/6 69/1/6 

v 550 300 275
f 66/7/7 72/1/7 70/4/7 67/8/7 

f 67/8/8 70/4/8 72/1/8 66/7/8 

f 72/7/9 71/1/9 69/4/9 70/8/9 

f 70/8/10 69/4/10 71/1/10 72/7/10 

f 65/7/11 71/1/11 72/6/11 66/9/11 

f 66/9/12 72/6/12 71/1/12 65/7/12 

g Mesh10 Group11 Group1 Model

v 550 450 -1.13687e-13
v 850 450 -1.13687e-13
v 850 437.5 -1.13687e-13
v 550 437.5 -1.13687e-13
f 73/10/7 74/11/7 75/12/7 76/1/7 

f 76/1/8 75/12/8 74/11/8 73/10/8 

v 550 437.5 300
v 850 437.5 300
f 77/1/11 76/13/11 75/14/11 78/12/11 

v 550 450 300
f 79/10/9 73/15/9 76/16/9 77/1/9 

v 850 450 300
f 73/13/3 79/1/3 80/17/3 74/18/3 

f 74/18/6 80/17/6 79/1/6 73/13/6 

f 74/19/1 80/10/1 78/1/1 75/20/1 

f 75/20/2 78/1/2 80/10/2 74/19/2 

f 78/12/12 75/14/12 76/13/12 77/1/12 

f 77/1/10 76/16/10 73/15/10 79/10/10 

f 80/21/4 79/10/4 77/1/4 78/17/4 

f 78/17/5 77/1/5 79/10/5 80/21/5 

g Mesh11 Group12 Group1 Model

v 25 0 300
v 25 0 275
v 25 137.5 275
v 25 137.5 300
f 81/1/1 82/2/1 83/3/1 84/4/1 

f 84/4/2 83/3/2 82/2/2 81/1/2 

v 0 137.5 300
v 0 137.5 275
f 85/1/3 84/2/3 83/5/3 86/6/3 

v 0 0 300
f 87/1/4 81/2/4 84/3/4 85/4/4 

f 85/4/5 84/3/5 81/2/5 87/1/5 

f 86/6/6 83/5/6 84/2/6 85/1/6 

v 0 0 275
f 82/7/7 88/1/7 86/4/7 83/8/7 

f 83/8/8 86/4/8 88/1/8 82/7/8 

f 88/7/9 87/1/9 85/4/9 86/8/9 

f 86/8/10 85/4/10 87/1/10 88/7/10 

f 81/7/11 87/1/11 88/6/11 82/9/11 

f 82/9/12 88/6/12 87/1/12 81/7/12 

g Mesh12 Group13 Group1 Model

v 25 0 25
v 25 0 -7.10543e-14
v 25 137.5 -7.10543e-14
v 25 137.5 25
f 89/1/1 90/2/1 91/3/1 92/4/1 

f 92/4/2 91/3/2 90/2/2 89/1/2 

v 0 137.5 25
v 0 137.5 -7.10543e-14
f 93/1/3 92/2/3 91/5/3 94/6/3 

v 0 0 25
f 95/1/4 89/2/4 92/3/4 93/4/4 

f 93/4/5 92/3/5 89/2/5 95/1/5 

f 94/6/6 91/5/6 92/2/6 93/1/6 

v 0 0 -7.10543e-14
f 90/7/7 96/1/7 94/4/7 91/8/7 

f 91/8/8 94/4/8 96/1/8 90/7/8 

f 96/7/9 95/1/9 93/4/9 94/8/9 

f 94/8/10 93/4/10 95/1/10 96/7/10 

f 89/7/11 95/1/11 96/6/11 90/9/11 

f 90/9/12 96/6/12 95/1/12 89/7/12 

g Mesh13 Group14 Group1 Model

v 300 0 300
v 300 0 275
v 300 137.5 275
v 300 137.5 300
f 97/1/1 98/2/1 99/3/1 100/4/1 

f 100/4/2 99/3/2 98/2/2 97/1/2 

v 275 137.5 300
v 275 137.5 275
f 101/1/3 100/2/3 99/5/3 102/6/3 

v 275 0 300
f 103/1/4 97/2/4 100/3/4 101/4/4 

f 101/4/5 100/3/5 97/2/5 103/1/5 

f 102/6/6 99/5/6 100/2/6 101/1/6 

v 275 0 275
f 98/7/7 104/1/7 102/4/7 99/8/7 

f 99/8/8 102/4/8 104/1/8 98/7/8 

f 104/7/9 103/1/9 101/4/9 102/8/9 

f 102/8/10 101/4/10 103/1/10 104/7/10 

f 97/7/11 103/1/11 104/6/11 98/9/11 

f 98/9/12 104/6/12 103/1/12 97/7/12 

g Mesh14 Group15 Group1 Model

v 300 0 25
v 300 0 -7.10543e-14
v 300 137.5 -7.10543e-14
v 300 137.5 25
f 105/1/1 106/2/1 107/3/1 108/4/1 

f 108/4/2 107/3/2 106/2/2 105/1/2 

v 275 137.5 25
v 275 137.5 -7.10543e-14
f 109/1/3 108/2/3 107/5/3 110/6/3 

v 275 0 25
f 111/1/4 105/2/4 108/3/4 109/4/4 

f 109/4/5 108/3/5 105/2/5 111/1/5 

f 110/6/6 107/5/6 108/2/6 109/1/6 

v 275 0 -7.10543e-14
f 106/7/7 112/1/7 110/4/7 107/8/7 

f 107/8/8 110/4/8 112/1/8 106/7/8 

f 112/7/9 111/1/9 109/4/9 110/8/9 

f 110/8/10 109/4/10 111/1/10 112/7/10 

f 105/7/11 111/1/11 112/6/11 106/9/11 

f 106/9/12 112/6/12 111/1/12 105/7/12 

g Mesh15 Group16 Group1 Model

v 575 0 300
v 575 0 275
v 575 137.5 275
v 575 137.5 300
f 113/1/1 114/2/1 115/3/1 116/4/1 

f 116/4/2 115/3/2 114/2/2 113/1/2 

v 550 137.5 300
v 550 137.5 275
f 117/1/3 116/2/3 115/5/3 118/6/3 

v 550 0 300
f 119/1/4 113/2/4 116/3/4 117/4/4 

f 117/4/5 116/3/5 113/2/5 119/1/5 

f 118/6/6 115/5/6 116/2/6 117/1/6 

v 550 0 275
f 114/7/7 120/1/7 118/4/7 115/8/7 

f 115/8/8 118/4/8 120/1/8 114/7/8 

f 120/7/9 119/1/9 117/4/9 118/8/9 

f 118/8/10 117/4/10 119/1/10 120/7/10 

f 113/7/11 119/1/11 120/6/11 114/9/11 

f 114/9/12 120/6/12 119/1/12 113/7/12 

g Mesh16 Group17 Group1 Model

v 575 0 25
v 575 0 -7.10543e-14
v 575 137.5 -7.10543e-14
v 575 137.5 25
f 121/1/1 122/2/1 123/3/1 124/4/1 

f 124/4/2 123/3/2 122/2/2 121/1/2 

v 550 137.5 25
v 550 137.5 -7.10543e-14
f 125/1/3 124/2/3 123/5/3 126/6/3 

v 550 0 25
f 127/1/4 121/2/4 124/3/4 125/4/4 

f 125/4/5 124/3/5 121/2/5 127/1/5 

f 126/6/6 123/5/6 124/2/6 125/1/6 

v 550 0 -7.10543e-14
f 122/7/7 128/1/7 126/4/7 123/8/7 

f 123/8/8 126/4/8 128/1/8 122/7/8 

f 128/7/9 127/1/9 125/4/9 126/8/9 

f 126/8/10 125/4/10 127/1/10 128/7/10 

f 121/7/11 127/1/11 128/6/11 122/9/11 

f 122/9/12 128/6/12 127/1/12 121/7/12 

g Mesh17 Group18 Group1 Model

v 850 0 300
v 850 0 275
v 850 137.5 275
v 850 137.5 300
f 129/1/1 130/2/1 131/3/1 132/4/1 

f 132/4/2 131/3/2 130/2/2 129/1/2 

v 825 137.5 300
v 825 137.5 275
f 133/1/3 132/2/3 131/5/3 134/6/3 

v 825 0 300
f 135/1/4 129/2/4 132/3/4 133/4/4 

f 133/4/5 132/3/5 129/2/5 135/1/5 

f 134/6/6 131/5/6 132/2/6 133/1/6 

v 825 0 275
f 130/7/7 136/1/7 134/4/7 131/8/7 

f 131/8/8 134/4/8 136/1/8 130/7/8 

f 136/7/9 135/1/9 133/4/9 134/8/9 

f 134/8/10 133/4/10 135/1/10 136/7/10 

f 129/7/11 135/1/11 136/6/11 130/9/11 

f 130/9/12 136/6/12 135/1/12 129/7/12 

g Mesh18 Group19 Group1 Model

v 850 0 25
v 850 0 -7.10543e-14
v 850 137.5 -7.10543e-14
v 850 137.5 25
f 137/1/1 138/2/1 139/3/1 140/4/1 

f 140/4/2 139/3/2 138/2/2 137/1/2 

v 825 137.5 25
v 825 137.5 -7.10543e-14
f 141/1/3 140/2/3 139/5/3 142/6/3 

v 825 0 25
f 143/1/4 137/2/4 140/3/4 141/4/4 

f 141/4/5 140/3/5 137/2/5 143/1/5 

f 142/6/6 139/5/6 140/2/6 141/1/6 

v 825 0 -7.10543e-14
f 138/7/7 144/1/7 142/4/7 139/8/7 

f 139/8/8 142/4/8 144/1/8 138/7/8 

f 144/7/9 143/1/9 141/4/9 142/8/9 

f 142/8/10 141/4/10 143/1/10 144/7/10 

f 137/7/11 143/1/11 144/6/11 138/9/11 

f 138/9/12 144/6/12 143/1/12 137/7/12 

g Mesh19 Group20 Group1 Model

v 300 150 25
v 300 150 -7.10543e-14
v 300 287.5 -7.10543e-14
v 300 287.5 25
f 145/1/1 146/2/1 147/3/1 148/4/1 

f 148/4/2 147/3/2 146/2/2 145/1/2 

v 275 287.5 25
v 275 287.5 -7.10543e-14
f 149/1/3 148/2/3 147/5/3 150/6/3 

v 275 150 25
f 151/1/4 145/2/4 148/3/4 149/4/4 

f 149/4/5 148/3/5 145/2/5 151/1/5 

f 150/6/6 147/5/6 148/2/6 149/1/6 

v 275 150 -7.10543e-14
f 146/7/7 152/1/7 150/4/7 147/8/7 

f 147/8/8 150/4/8 152/1/8 146/7/8 

f 152/7/9 151/1/9 149/4/9 150/8/9 

f 150/8/10 149/4/10 151/1/10 152/7/10 

f 145/7/11 151/1/11 152/6/11 146/9/11 

f 146/9/12 152/6/12 151/1/12 145/7/12 

g Mesh20 Group21 Group1 Model

v 300 150 300
v 300 150 275
v 300 287.5 275
v 300 287.5 300
f 153/1/1 154/2/1 155/3/1 156/4/1 

f 156/4/2 155/3/2 154/2/2 153/1/2 

v 275 287.5 300
v 275 287.5 275
f 157/1/3 156/2/3 155/5/3 158/6/3 

v 275 150 300
f 159/1/4 153/2/4 156/3/4 157/4/4 

f 157/4/5 156/3/5 153/2/5 159/1/5 

f 158/6/6 155/5/6 156/2/6 157/1/6 

v 275 150 275
f 154/7/7 160/1/7 158/4/7 155/8/7 

f 155/8/8 158/4/8 160/1/8 154/7/8 

f 160/7/9 159/1/9 157/4/9 158/8/9 

f 158/8/10 157/4/10 159/1/10 160/7/10 

f 153/7/11 159/1/11 160/6/11 154/9/11 

f 154/9/12 160/6/12 159/1/12 153/7/12 

g Mesh21 Group22 Group1 Model

v 575 150 300
v 575 150 275
v 575 287.5 275
v 575 287.5 300
f 161/1/1 162/2/1 163/3/1 164/4/1 

f 164/4/2 163/3/2 162/2/2 161/1/2 

v 550 287.5 300
v 550 287.5 275
f 165/1/3 164/2/3 163/5/3 166/6/3 

v 550 150 300
f 167/1/4 161/2/4 164/3/4 165/4/4 

f 165/4/5 164/3/5 161/2/5 167/1/5 

f 166/6/6 163/5/6 164/2/6 165/1/6 

v 550 150 275
f 162/7/7 168/1/7 166/4/7 163/8/7 

f 163/8/8 166/4/8 168/1/8 162/7/8 

f 168/7/9 167/1/9 165/4/9 166/8/9 

f 166/8/10 165/4/10 167/1/10 168/7/10 

f 161/7/11 167/1/11 168/6/11 162/9/11 

f 162/9/12 168/6/12 167/1/12 161/7/12 

