# Alias OBJ Model File
# Exported from SketchUp, (c) 2000-2012 Trimble Navigation Limited
# File units = millimeters

mtllib skelet.mtl

g Mesh1 Group1 Model

usemtl Blacktop_Old_02
v 575 150 25
vt 0 0
vn 1 0 -0
v 575 150 -5.68434e-14
vt 0.82021 0
v 575 287.5 -5.68434e-14
vt 0.82021 4.92126
v 575 287.5 25
vt 0 4.92126
f 1/1/1 2/2/1 3/3/1 4/4/1 

vn -1 -0 0
f 4/4/2 3/3/2 2/2/2 1/1/2 

v 550 287.5 25
vn 0 1 -0
vt 0.82021 0.82021
v 550 287.5 -5.68434e-14
vt 0 0.82021
f 5/1/3 4/2/3 3/5/3 6/6/3 

v 550 150 25
vn 0 0 1
f 7/1/4 1/2/4 4/3/4 5/4/4 

vn -0 -0 -1
f 5/4/5 4/3/5 1/2/5 7/1/5 

vn -0 -1 0
f 6/6/6 3/5/6 4/2/6 5/1/6 

vt -0.82021 0
vn 0 0 -1
v 550 150 -5.68434e-14
vt -0.82021 4.92126
f 2/7/7 8/1/7 6/4/7 3/8/7 

vn -0 -0 1
f 3/8/8 6/4/8 8/1/8 2/7/8 

vn -1 0 -0
f 8/7/9 7/1/9 5/4/9 6/8/9 

vn 1 -0 0
f 6/8/10 5/4/10 7/1/10 8/7/10 

vn 0 -1 -0
vt -0.82021 0.82021
f 1/7/11 7/1/11 8/6/11 2/9/11 

vn -0 1 0
f 2/9/12 8/6/12 7/1/12 1/7/12 

g Mesh2 Group2 Model

v 0 150 -0
vt 0 0.410105
v 850 150 -0
vt -27.8871 0.410105
v 850 137.5 -0
vt -27.8871 0
v 0 137.5 -0
f 9/10/7 10/11/7 11/12/7 12/1/7 

f 12/1/8 11/12/8 10/11/8 9/10/8 

v 0 137.5 300
vt 0 9.84252
vt -27.8871 9.84252
v 850 137.5 300
f 13/1/11 12/13/11 11/14/11 14/12/11 

v 0 150 300
vt -9.84252 0.410105
vt -9.84252 0
f 15/10/9 9/15/9 12/16/9 13/1/9 

v 850 150 300
vt 27.8871 0
vt 27.8871 9.84252
f 9/13/3 15/1/3 16/17/3 10/18/3 

f 10/18/6 16/17/6 15/1/6 9/13/6 

vt 9.84252 0.410105
vt 9.84252 0
f 10/19/1 16/10/1 14/1/1 11/20/1 

f 11/20/2 14/1/2 16/10/2 10/19/2 

f 14/12/12 11/14/12 12/13/12 13/1/12 

f 13/1/10 12/16/10 9/15/10 15/10/10 

vt 27.8871 0.410105
f 16/21/4 15/10/4 13/1/4 14/17/4 

f 14/17/5 13/1/5 15/10/5 16/21/5 

g Mesh3 Group3 Model

v 850 150 300
v 850 150 275
v 850 287.5 275
v 850 287.5 300
f 17/1/1 18/2/1 19/3/1 20/4/1 

f 20/4/2 19/3/2 18/2/2 17/1/2 

v 825 287.5 300
v 825 287.5 275
f 21/1/3 20/2/3 19/5/3 22/6/3 

v 825 150 300
f 23/1/4 17/2/4 20/3/4 21/4/4 

f 21/4/5 20/3/5 17/2/5 23/1/5 

f 22/6/6 19/5/6 20/2/6 21/1/6 

v 825 150 275
f 18/7/7 24/1/7 22/4/7 19/8/7 

f 19/8/8 22/4/8 24/1/8 18/7/8 

f 24/7/9 23/1/9 21/4/9 22/8/9 

f 22/8/10 21/4/10 23/1/10 24/7/10 

f 17/7/11 23/1/11 24/6/11 18/9/11 

f 18/9/12 24/6/12 23/1/12 17/7/12 

g Mesh4 Group4 Model

v 575 300 25
v 575 300 -4.9738e-14
v 575 437.5 -4.9738e-14
v 575 437.5 25
f 25/1/1 26/2/1 27/3/1 28/4/1 

f 28/4/2 27/3/2 26/2/2 25/1/2 

v 550 437.5 25
v 550 437.5 -4.9738e-14
f 29/1/3 28/2/3 27/5/3 30/6/3 

v 550 300 25
f 31/1/4 25/2/4 28/3/4 29/4/4 

f 29/4/5 28/3/5 25/2/5 31/1/5 

f 30/6/6 27/5/6 28/2/6 29/1/6 

v 550 300 -4.9738e-14
f 26/7/7 32/1/7 30/4/7 27/8/7 

f 27/8/8 30/4/8 32/1/8 26/7/8 

f 32/7/9 31/1/9 29/4/9 30/8/9 

f 30/8/10 29/4/10 31/1/10 32/7/10 

f 25/7/11 31/1/11 32/6/11 26/9/11 

f 26/9/12 32/6/12 31/1/12 25/7/12 

g Mesh5 Group5 Model

v 575 300 300
v 575 300 275
v 575 437.5 275
v 575 437.5 300
f 33/1/1 34/2/1 35/3/1 36/4/1 

f 36/4/2 35/3/2 34/2/2 33/1/2 

v 550 437.5 300
v 550 437.5 275
f 37/1/3 36/2/3 35/5/3 38/6/3 

v 550 300 300
f 39/1/4 33/2/4 36/3/4 37/4/4 

f 37/4/5 36/3/5 33/2/5 39/1/5 

f 38/6/6 35/5/6 36/2/6 37/1/6 

v 550 300 275
f 34/7/7 40/1/7 38/4/7 35/8/7 

f 35/8/8 38/4/8 40/1/8 34/7/8 

f 40/7/9 39/1/9 37/4/9 38/8/9 

f 38/8/10 37/4/10 39/1/10 40/7/10 

f 33/7/11 39/1/11 40/6/11 34/9/11 

f 34/9/12 40/6/12 39/1/12 33/7/12 

g Mesh6 Group6 Model

v 850 150 25
v 850 150 -5.68434e-14
v 850 287.5 -5.68434e-14
v 850 287.5 25
f 41/1/1 42/2/1 43/3/1 44/4/1 

f 44/4/2 43/3/2 42/2/2 41/1/2 

v 825 287.5 25
v 825 287.5 -5.68434e-14
f 45/1/3 44/2/3 43/5/3 46/6/3 

v 825 150 25
f 47/1/4 41/2/4 44/3/4 45/4/4 

f 45/4/5 44/3/5 41/2/5 47/1/5 

f 46/6/6 43/5/6 44/2/6 45/1/6 

v 825 150 -5.68434e-14
f 42/7/7 48/1/7 46/4/7 43/8/7 

f 43/8/8 46/4/8 48/1/8 42/7/8 

f 48/7/9 47/1/9 45/4/9 46/8/9 

f 46/8/10 45/4/10 47/1/10 48/7/10 

f 41/7/11 47/1/11 48/6/11 42/9/11 

f 42/9/12 48/6/12 47/1/12 41/7/12 

g Mesh7 Group7 Model

v 25 0 300
v 25 0 275
v 25 137.5 275
v 25 137.5 300
f 49/1/1 50/2/1 51/3/1 52/4/1 

f 52/4/2 51/3/2 50/2/2 49/1/2 

v 0 137.5 300
v 0 137.5 275
f 53/1/3 52/2/3 51/5/3 54/6/3 

v 0 0 300
f 55/1/4 49/2/4 52/3/4 53/4/4 

f 53/4/5 52/3/5 49/2/5 55/1/5 

f 54/6/6 51/5/6 52/2/6 53/1/6 

v 0 0 275
f 50/7/7 56/1/7 54/4/7 51/8/7 

f 51/8/8 54/4/8 56/1/8 50/7/8 

f 56/7/9 55/1/9 53/4/9 54/8/9 

f 54/8/10 53/4/10 55/1/10 56/7/10 

f 49/7/11 55/1/11 56/6/11 50/9/11 

f 50/9/12 56/6/12 55/1/12 49/7/12 

g Mesh8 Group8 Model

v 25 0 25
v 25 0 -5.68434e-14
v 25 137.5 -5.68434e-14
v 25 137.5 25
f 57/1/1 58/2/1 59/3/1 60/4/1 

f 60/4/2 59/3/2 58/2/2 57/1/2 

v 0 137.5 25
v 0 137.5 -5.68434e-14
f 61/1/3 60/2/3 59/5/3 62/6/3 

v 0 0 25
f 63/1/4 57/2/4 60/3/4 61/4/4 

f 61/4/5 60/3/5 57/2/5 63/1/5 

f 62/6/6 59/5/6 60/2/6 61/1/6 

v 0 0 -5.68434e-14
f 58/7/7 64/1/7 62/4/7 59/8/7 

f 59/8/8 62/4/8 64/1/8 58/7/8 

f 64/7/9 63/1/9 61/4/9 62/8/9 

f 62/8/10 61/4/10 63/1/10 64/7/10 

f 57/7/11 63/1/11 64/6/11 58/9/11 

f 58/9/12 64/6/12 63/1/12 57/7/12 

g Mesh9 Group9 Model

v 850 300 25
v 850 300 -5.68434e-14
v 850 437.5 -5.68434e-14
v 850 437.5 25
f 65/1/1 66/2/1 67/3/1 68/4/1 

f 68/4/2 67/3/2 66/2/2 65/1/2 

v 825 437.5 25
v 825 437.5 -5.68434e-14
f 69/1/3 68/2/3 67/5/3 70/6/3 

v 825 300 25
f 71/1/4 65/2/4 68/3/4 69/4/4 

f 69/4/5 68/3/5 65/2/5 71/1/5 

f 70/6/6 67/5/6 68/2/6 69/1/6 

v 825 300 -5.68434e-14
f 66/7/7 72/1/7 70/4/7 67/8/7 

f 67/8/8 70/4/8 72/1/8 66/7/8 

f 72/7/9 71/1/9 69/4/9 70/8/9 

f 70/8/10 69/4/10 71/1/10 72/7/10 

f 65/7/11 71/1/11 72/6/11 66/9/11 

f 66/9/12 72/6/12 71/1/12 65/7/12 

g Mesh10 Group10 Model

v 575 0 300
v 575 0 275
v 575 137.5 275
v 575 137.5 300
f 73/1/1 74/2/1 75/3/1 76/4/1 

f 76/4/2 75/3/2 74/2/2 73/1/2 

v 550 137.5 300
v 550 137.5 275
f 77/1/3 76/2/3 75/5/3 78/6/3 

v 550 0 300
f 79/1/4 73/2/4 76/3/4 77/4/4 

f 77/4/5 76/3/5 73/2/5 79/1/5 

f 78/6/6 75/5/6 76/2/6 77/1/6 

v 550 0 275
f 74/7/7 80/1/7 78/4/7 75/8/7 

f 75/8/8 78/4/8 80/1/8 74/7/8 

f 80/7/9 79/1/9 77/4/9 78/8/9 

f 78/8/10 77/4/10 79/1/10 80/7/10 

f 73/7/11 79/1/11 80/6/11 74/9/11 

f 74/9/12 80/6/12 79/1/12 73/7/12 

g Mesh11 Group11 Model

v 850 300 300
v 850 300 275
v 850 437.5 275
v 850 437.5 300
f 81/1/1 82/2/1 83/3/1 84/4/1 

f 84/4/2 83/3/2 82/2/2 81/1/2 

v 825 437.5 300
v 825 437.5 275
f 85/1/3 84/2/3 83/5/3 86/6/3 

v 825 300 300
f 87/1/4 81/2/4 84/3/4 85/4/4 

f 85/4/5 84/3/5 81/2/5 87/1/5 

f 86/6/6 83/5/6 84/2/6 85/1/6 

v 825 300 275
f 82/7/7 88/1/7 86/4/7 83/8/7 

f 83/8/8 86/4/8 88/1/8 82/7/8 

f 88/7/9 87/1/9 85/4/9 86/8/9 

f 86/8/10 85/4/10 87/1/10 88/7/10 

f 81/7/11 87/1/11 88/6/11 82/9/11 

f 82/9/12 88/6/12 87/1/12 81/7/12 

g Mesh12 Group12 Model

v 275 300 -3.41061e-13
v 850 300 -3.41061e-13
v 850 287.5 -3.41061e-13
v 275 287.5 -3.41061e-13
f 89/10/7 90/11/7 91/12/7 92/1/7 

f 92/1/8 91/12/8 90/11/8 89/10/8 

v 275 287.5 300
v 850 287.5 300
f 93/1/11 92/13/11 91/14/11 94/12/11 

v 275 300 300
f 95/10/9 89/15/9 92/16/9 93/1/9 

v 850 300 300
f 89/13/3 95/1/3 96/17/3 90/18/3 

f 90/18/6 96/17/6 95/1/6 89/13/6 

f 90/19/1 96/10/1 94/1/1 91/20/1 

f 91/20/2 94/1/2 96/10/2 90/19/2 

f 94/12/12 91/14/12 92/13/12 93/1/12 

f 93/1/10 92/16/10 89/15/10 95/10/10 

f 96/21/4 95/10/4 93/1/4 94/17/4 

f 94/17/5 93/1/5 95/10/5 96/21/5 

g Mesh13 Group13 Model

v 300 150 300
v 300 150 275
v 300 287.5 275
v 300 287.5 300
f 97/1/1 98/2/1 99/3/1 100/4/1 

f 100/4/2 99/3/2 98/2/2 97/1/2 

v 275 287.5 300
v 275 287.5 275
f 101/1/3 100/2/3 99/5/3 102/6/3 

v 275 150 300
f 103/1/4 97/2/4 100/3/4 101/4/4 

f 101/4/5 100/3/5 97/2/5 103/1/5 

f 102/6/6 99/5/6 100/2/6 101/1/6 

v 275 150 275
f 98/7/7 104/1/7 102/4/7 99/8/7 

f 99/8/8 102/4/8 104/1/8 98/7/8 

f 104/7/9 103/1/9 101/4/9 102/8/9 

f 102/8/10 101/4/10 103/1/10 104/7/10 

f 97/7/11 103/1/11 104/6/11 98/9/11 

f 98/9/12 104/6/12 103/1/12 97/7/12 

g Mesh14 Group14 Model

v 850 0 25
v 850 0 -5.68434e-14
v 850 137.5 -5.68434e-14
v 850 137.5 25
f 105/1/1 106/2/1 107/3/1 108/4/1 

f 108/4/2 107/3/2 106/2/2 105/1/2 

v 825 137.5 25
v 825 137.5 -5.68434e-14
f 109/1/3 108/2/3 107/5/3 110/6/3 

v 825 0 25
f 111/1/4 105/2/4 108/3/4 109/4/4 

f 109/4/5 108/3/5 105/2/5 111/1/5 

f 110/6/6 107/5/6 108/2/6 109/1/6 

v 825 0 -5.68434e-14
f 106/7/7 112/1/7 110/4/7 107/8/7 

f 107/8/8 110/4/8 112/1/8 106/7/8 

f 112/7/9 111/1/9 109/4/9 110/8/9 

f 110/8/10 109/4/10 111/1/10 112/7/10 

f 105/7/11 111/1/11 112/6/11 106/9/11 

f 106/9/12 112/6/12 111/1/12 105/7/12 

g Mesh15 Group15 Model

v 575 150 300
v 575 150 275
v 575 287.5 275
v 575 287.5 300
f 113/1/1 114/2/1 115/3/1 116/4/1 

f 116/4/2 115/3/2 114/2/2 113/1/2 

v 550 287.5 300
v 550 287.5 275
f 117/1/3 116/2/3 115/5/3 118/6/3 

v 550 150 300
f 119/1/4 113/2/4 116/3/4 117/4/4 

f 117/4/5 116/3/5 113/2/5 119/1/5 

f 118/6/6 115/5/6 116/2/6 117/1/6 

v 550 150 275
f 114/7/7 120/1/7 118/4/7 115/8/7 

f 115/8/8 118/4/8 120/1/8 114/7/8 

f 120/7/9 119/1/9 117/4/9 118/8/9 

f 118/8/10 117/4/10 119/1/10 120/7/10 

f 113/7/11 119/1/11 120/6/11 114/9/11 

f 114/9/12 120/6/12 119/1/12 113/7/12 

g Mesh16 Group16 Model

v 300 150 25
v 300 150 -5.68434e-14
v 300 287.5 -5.68434e-14
v 300 287.5 25
f 121/1/1 122/2/1 123/3/1 124/4/1 

f 124/4/2 123/3/2 122/2/2 121/1/2 

v 275 287.5 25
v 275 287.5 -5.68434e-14
f 125/1/3 124/2/3 123/5/3 126/6/3 

v 275 150 25
f 127/1/4 121/2/4 124/3/4 125/4/4 

f 125/4/5 124/3/5 121/2/5 127/1/5 

f 126/6/6 123/5/6 124/2/6 125/1/6 

v 275 150 -5.68434e-14
f 122/7/7 128/1/7 126/4/7 123/8/7 

f 123/8/8 126/4/8 128/1/8 122/7/8 

f 128/7/9 127/1/9 125/4/9 126/8/9 

f 126/8/10 125/4/10 127/1/10 128/7/10 

f 121/7/11 127/1/11 128/6/11 122/9/11 

f 122/9/12 128/6/12 127/1/12 121/7/12 

g Mesh17 Group17 Model

v 300 0 25
v 300 0 -5.68434e-14
v 300 137.5 -5.68434e-14
v 300 137.5 25
f 129/1/1 130/2/1 131/3/1 132/4/1 

f 132/4/2 131/3/2 130/2/2 129/1/2 

v 275 137.5 25
v 275 137.5 -5.68434e-14
f 133/1/3 132/2/3 131/5/3 134/6/3 

v 275 0 25
f 135/1/4 129/2/4 132/3/4 133/4/4 

f 133/4/5 132/3/5 129/2/5 135/1/5 

f 134/6/6 131/5/6 132/2/6 133/1/6 

v 275 0 -5.68434e-14
f 130/7/7 136/1/7 134/4/7 131/8/7 

f 131/8/8 134/4/8 136/1/8 130/7/8 

f 136/7/9 135/1/9 133/4/9 134/8/9 

f 134/8/10 133/4/10 135/1/10 136/7/10 

f 129/7/11 135/1/11 136/6/11 130/9/11 

f 130/9/12 136/6/12 135/1/12 129/7/12 

g Mesh18 Group18 Model

v 575 0 25
v 575 0 -5.68434e-14
v 575 137.5 -5.68434e-14
v 575 137.5 25
f 137/1/1 138/2/1 139/3/1 140/4/1 

f 140/4/2 139/3/2 138/2/2 137/1/2 

v 550 137.5 25
v 550 137.5 -5.68434e-14
f 141/1/3 140/2/3 139/5/3 142/6/3 

v 550 0 25
f 143/1/4 137/2/4 140/3/4 141/4/4 

f 141/4/5 140/3/5 137/2/5 143/1/5 

f 142/6/6 139/5/6 140/2/6 141/1/6 

v 550 0 -5.68434e-14
f 138/7/7 144/1/7 142/4/7 139/8/7 

f 139/8/8 142/4/8 144/1/8 138/7/8 

f 144/7/9 143/1/9 141/4/9 142/8/9 

f 142/8/10 141/4/10 143/1/10 144/7/10 

f 137/7/11 143/1/11 144/6/11 138/9/11 

f 138/9/12 144/6/12 143/1/12 137/7/12 

g Mesh19 Group19 Model

v 850 0 300
v 850 0 275
v 850 137.5 275
v 850 137.5 300
f 145/1/1 146/2/1 147/3/1 148/4/1 

f 148/4/2 147/3/2 146/2/2 145/1/2 

v 825 137.5 300
v 825 137.5 275
f 149/1/3 148/2/3 147/5/3 150/6/3 

v 825 0 300
f 151/1/4 145/2/4 148/3/4 149/4/4 

f 149/4/5 148/3/5 145/2/5 151/1/5 

f 150/6/6 147/5/6 148/2/6 149/1/6 

v 825 0 275
f 146/7/7 152/1/7 150/4/7 147/8/7 

f 147/8/8 150/4/8 152/1/8 146/7/8 

f 152/7/9 151/1/9 149/4/9 150/8/9 

f 150/8/10 149/4/10 151/1/10 152/7/10 

f 145/7/11 151/1/11 152/6/11 146/9/11 

f 146/9/12 152/6/12 151/1/12 145/7/12 

g Mesh20 Group20 Model

v 300 0 300
v 300 0 275
v 300 137.5 275
v 300 137.5 300
f 153/1/1 154/2/1 155/3/1 156/4/1 

f 156/4/2 155/3/2 154/2/2 153/1/2 

v 275 137.5 300
v 275 137.5 275
f 157/1/3 156/2/3 155/5/3 158/6/3 

v 275 0 300
f 159/1/4 153/2/4 156/3/4 157/4/4 

f 157/4/5 156/3/5 153/2/5 159/1/5 

f 158/6/6 155/5/6 156/2/6 157/1/6 

v 275 0 275
f 154/7/7 160/1/7 158/4/7 155/8/7 

f 155/8/8 158/4/8 160/1/8 154/7/8 

f 160/7/9 159/1/9 157/4/9 158/8/9 

f 158/8/10 157/4/10 159/1/10 160/7/10 

f 153/7/11 159/1/11 160/6/11 154/9/11 

f 154/9/12 160/6/12 159/1/12 153/7/12 

g Mesh21 Group21 Model

v 550 450 -5.11591e-13
v 850 450 -5.11591e-13
v 850 437.5 -5.11591e-13
v 550 437.5 -5.11591e-13
f 161/10/7 162/11/7 163/12/7 164/1/7 

usemtl Concrete_Scored_Jointless
vt -669.291 0
vt -669.291 9.84252
f 164/1/8 163/22/8 162/23/8 161/13/8 

usemtl Blacktop_Old_02
v 550 437.5 300
v 850 437.5 300
f 165/1/11 164/13/11 163/14/11 166/12/11 

v 550 450 300
f 167/10/9 161/15/9 164/16/9 165/1/9 

v 850 450 300
f 161/13/3 167/1/3 168/17/3 162/18/3 

usemtl Concrete_Scored_Jointless
vt 669.291 236.22
vt 669.291 0
vt 0 236.22
f 162/24/6 168/25/6 167/1/6 161/26/6 

usemtl Blacktop_Old_02
f 162/19/1 168/10/1 166/1/1 163/20/1 

usemtl Concrete_Scored_Jointless
vt 236.22 0
vt 236.22 9.84252
f 163/27/2 166/1/2 168/13/2 162/28/2 

vt -669.291 236.22
f 166/22/12 163/29/12 164/26/12 165/1/12 

vt -236.22 0
vt -236.22 9.84252
f 165/1/10 164/30/10 161/31/10 167/13/10 

usemtl Blacktop_Old_02
f 168/21/4 167/10/4 165/1/4 166/17/4 

usemtl Concrete_Scored_Jointless
vt 669.291 9.84252
f 166/25/5 165/1/5 167/13/5 168/32/5 

